<svg xmlns="http://www.w3.org/2000/svg" width="16" height="10" viewBox="0 0 16 10">
  <defs>
    <style>
      .cls-1 {
        fill: #fff;
        fill-rule: evenodd;
      }     
    </style>
  </defs>
  <path id="Activity_1" data-name="Activity 1" class="cls-1" d="M6,10a1,1,0,0,1-.8-0.4L3.047,6.73,1.831,8.554A1,1,0,1,1,.167,7.445l2-3A1,1,0,0,1,2.972,4a1.031,1.031,0,0,1,.827.4L5.829,7.1,8.1,2.552A1,1,0,0,1,8.91,2a0.986,0.986,0,0,1,.89.4L11.829,5.1,14.1,0.552a1,1,0,0,1,1.789.895l-3,6A1,1,0,0,1,11.2,7.6L9.17,4.894,6.894,9.447a1,1,0,0,1-.8.549C6.059,10,6.029,10,6,10Z"/>
</svg>
